<svg width="165" height="163" viewBox="0 0 165 163" fill="none" xmlns="http://www.w3.org/2000/svg">
<path d="M98.2926 138.462L63.1033 92.0834C39.503 53.2814 38.6687 22.3202 38.6687 22.3202C6.37281 142.81 77.1758 154.611 98.2926 138.462Z" fill="black"/>
<path d="M127.479 48.0661C139.987 58.0036 152.54 93.5593 133.621 117.372C114.702 141.186 81.6772 150.127 60.0473 132.943C38.4174 115.759 51.7117 19.2153 51.7117 19.2153C51.7117 19.2153 112.912 36.4931 127.479 48.0661Z" fill="black"/>
<path d="M57.5517 76.3746V58.9201H63.4495C64.8131 58.9201 65.9324 59.153 66.8074 59.619C67.6824 60.0792 68.3302 60.7127 68.7506 61.5195C69.1711 62.3263 69.3813 63.244 69.3813 64.2724C69.3813 65.3008 69.1711 66.2127 68.7506 67.0082C68.3302 67.8036 67.6853 68.4286 66.816 68.8832C65.9466 69.332 64.8358 69.5565 63.4836 69.5565H58.7108V67.6474H63.4154C64.3472 67.6474 65.0972 67.511 65.6654 67.2383C66.2392 66.9655 66.654 66.5792 66.9097 66.0792C67.1711 65.5735 67.3017 64.9712 67.3017 64.2724C67.3017 63.5735 67.1711 62.9627 66.9097 62.44C66.6483 61.9172 66.2307 61.5138 65.6569 61.2297C65.083 60.94 64.3245 60.7951 63.3813 60.7951H59.6654V76.3746H57.5517ZM65.7677 68.5337L70.0631 76.3746H67.6086L63.3813 68.5337H65.7677ZM77.8081 76.6474C76.6263 76.6474 75.5894 76.3661 74.6973 75.8036C73.811 75.2411 73.1178 74.4542 72.6178 73.4428C72.1235 72.4315 71.8763 71.2496 71.8763 69.8974C71.8763 68.5337 72.1235 67.3434 72.6178 66.3263C73.1178 65.3093 73.811 64.5195 74.6973 63.957C75.5894 63.3945 76.6263 63.1133 77.8081 63.1133C78.99 63.1133 80.024 63.3945 80.9104 63.957C81.8025 64.5195 82.4956 65.3093 82.99 66.3263C83.49 67.3434 83.74 68.5337 83.74 69.8974C83.74 71.2496 83.49 72.4315 82.99 73.4428C82.4956 74.4542 81.8025 75.2411 80.9104 75.8036C80.024 76.3661 78.99 76.6474 77.8081 76.6474ZM77.8081 74.8405C78.7059 74.8405 79.4445 74.6104 80.024 74.1502C80.6036 73.69 81.0326 73.0849 81.311 72.3349C81.5894 71.5849 81.7286 70.7724 81.7286 69.8974C81.7286 69.0224 81.5894 68.207 81.311 67.4513C81.0326 66.6957 80.6036 66.0849 80.024 65.619C79.4445 65.153 78.7059 64.9201 77.8081 64.9201C76.9104 64.9201 76.1718 65.153 75.5922 65.619C75.0127 66.0849 74.5837 66.6957 74.3053 67.4513C74.0269 68.207 73.8877 69.0224 73.8877 69.8974C73.8877 70.7724 74.0269 71.5849 74.3053 72.3349C74.5837 73.0849 75.0127 73.69 75.5922 74.1502C76.1718 74.6104 76.9104 74.8405 77.8081 74.8405ZM96.083 66.2155L94.2762 66.7269C94.1625 66.4258 93.9949 66.1332 93.7733 65.8491C93.5574 65.5593 93.262 65.3207 92.887 65.1332C92.512 64.9457 92.0319 64.8519 91.4466 64.8519C90.6455 64.8519 89.9779 65.0366 89.4438 65.4059C88.9154 65.7695 88.6512 66.2326 88.6512 66.7951C88.6512 67.2951 88.833 67.69 89.1966 67.9797C89.5603 68.2695 90.1285 68.511 90.9012 68.7042L92.8444 69.1815C94.0148 69.4655 94.887 69.9002 95.4608 70.4854C96.0347 71.065 96.3216 71.8121 96.3216 72.7269C96.3216 73.4769 96.1057 74.1474 95.6739 74.7383C95.2478 75.3292 94.6512 75.7951 93.8841 76.136C93.1171 76.4769 92.225 76.6474 91.208 76.6474C89.8728 76.6474 88.7677 76.3576 87.8927 75.778C87.0177 75.1985 86.4637 74.3519 86.2307 73.2383L88.1398 72.761C88.3216 73.4655 88.6654 73.994 89.1711 74.3462C89.6824 74.6985 90.35 74.8746 91.1739 74.8746C92.1114 74.8746 92.8557 74.6758 93.4069 74.278C93.9637 73.8746 94.2421 73.3917 94.2421 72.8292C94.2421 72.3746 94.083 71.994 93.7648 71.6871C93.4466 71.3746 92.958 71.1417 92.2989 70.9883L90.1171 70.4769C88.9182 70.1928 88.0375 69.7525 87.475 69.1559C86.9182 68.5536 86.6398 67.8008 86.6398 66.8974C86.6398 66.1587 86.8472 65.5053 87.262 64.9371C87.6824 64.369 88.2535 63.9229 88.975 63.5991C89.7023 63.2752 90.5262 63.1133 91.4466 63.1133C92.7421 63.1133 93.7591 63.3974 94.4978 63.9655C95.2421 64.5337 95.7705 65.2837 96.083 66.2155ZM103.202 76.6815C102.372 76.6815 101.619 76.5252 100.943 76.2127C100.267 75.8945 99.73 75.4371 99.3323 74.8405C98.9346 74.2383 98.7357 73.511 98.7357 72.6587C98.7357 71.9087 98.8834 71.3008 99.1789 70.8349C99.4743 70.3633 99.8692 69.994 100.364 69.7269C100.858 69.4599 101.403 69.261 102 69.1303C102.602 68.994 103.207 68.886 103.815 68.8065C104.611 68.7042 105.256 68.6275 105.75 68.5763C106.25 68.5195 106.614 68.4258 106.841 68.2951C107.074 68.1644 107.19 67.9371 107.19 67.6133V67.5451C107.19 66.7042 106.96 66.0508 106.5 65.5849C106.045 65.119 105.355 64.886 104.429 64.886C103.469 64.886 102.716 65.0962 102.17 65.5167C101.625 65.9371 101.241 66.386 101.02 66.8633L99.1107 66.1815C99.4516 65.386 99.9062 64.7667 100.474 64.3235C101.048 63.8746 101.673 63.5621 102.349 63.386C103.031 63.2042 103.702 63.1133 104.361 63.1133C104.781 63.1133 105.264 63.1644 105.81 63.2667C106.361 63.3633 106.892 63.565 107.403 63.8718C107.92 64.1786 108.349 64.6417 108.69 65.261C109.031 65.8803 109.202 66.7099 109.202 67.7496V76.3746H107.19V74.6019H107.088C106.952 74.886 106.724 75.19 106.406 75.5138C106.088 75.8377 105.665 76.1133 105.136 76.3405C104.608 76.5678 103.963 76.6815 103.202 76.6815ZM103.508 74.8746C104.304 74.8746 104.974 74.7184 105.52 74.4059C106.071 74.0934 106.486 73.69 106.764 73.1957C107.048 72.7013 107.19 72.1815 107.19 71.636V69.7951C107.105 69.8974 106.918 69.9911 106.628 70.0763C106.344 70.1559 106.014 70.2269 105.639 70.2894C105.27 70.3462 104.909 70.3974 104.557 70.4428C104.21 70.4826 103.929 70.5167 103.713 70.5451C103.19 70.6133 102.702 70.7241 102.247 70.8775C101.798 71.0252 101.435 71.2496 101.156 71.5508C100.883 71.8462 100.747 72.2496 100.747 72.761C100.747 73.4599 101.006 73.9883 101.523 74.3462C102.045 74.6985 102.707 74.8746 103.508 74.8746ZM58.2677 87.9201L63.4495 102.613H63.654L68.8358 87.9201H71.0517L64.6427 105.375H62.4608L56.0517 87.9201H58.2677ZM73.4978 105.375V92.2837H75.5091V105.375H73.4978ZM74.5205 90.1019C74.1285 90.1019 73.7904 89.9684 73.5063 89.7013C73.2279 89.4343 73.0887 89.1133 73.0887 88.7383C73.0887 88.3633 73.2279 88.0422 73.5063 87.7752C73.7904 87.5082 74.1285 87.3746 74.5205 87.3746C74.9125 87.3746 75.2478 87.5082 75.5262 87.7752C75.8103 88.0422 75.9523 88.3633 75.9523 88.7383C75.9523 89.1133 75.8103 89.4343 75.5262 89.7013C75.2478 89.9684 74.9125 90.1019 74.5205 90.1019ZM89.8976 92.2837L85.0567 105.375H83.0113L78.1704 92.2837H80.3522L83.9658 102.716H84.1022L87.7158 92.2837H89.8976ZM96.0063 105.681C95.1767 105.681 94.4239 105.525 93.7478 105.213C93.0716 104.895 92.5347 104.437 92.137 103.841C91.7392 103.238 91.5404 102.511 91.5404 101.659C91.5404 100.909 91.6881 100.301 91.9836 99.8349C92.279 99.3633 92.6739 98.994 93.1682 98.7269C93.6625 98.4599 94.208 98.261 94.8046 98.1303C95.4069 97.994 96.012 97.886 96.6199 97.8065C97.4154 97.7042 98.0603 97.6275 98.5546 97.5763C99.0546 97.5195 99.4182 97.4258 99.6455 97.2951C99.8785 97.1644 99.9949 96.9371 99.9949 96.6133V96.5451C99.9949 95.7042 99.7648 95.0508 99.3046 94.5849C98.85 94.119 98.1597 93.886 97.2336 93.886C96.2733 93.886 95.5205 94.0962 94.975 94.5167C94.4296 94.9371 94.0461 95.386 93.8245 95.8633L91.9154 95.1815C92.2563 94.386 92.7108 93.7667 93.279 93.3235C93.8529 92.8746 94.4779 92.5621 95.154 92.386C95.8358 92.2042 96.5063 92.1133 97.1654 92.1133C97.5858 92.1133 98.0688 92.1644 98.6142 92.2667C99.1654 92.3633 99.6966 92.565 100.208 92.8718C100.725 93.1786 101.154 93.6417 101.495 94.261C101.836 94.8803 102.006 95.7099 102.006 96.7496V105.375H99.9949V103.602H99.8927C99.7563 103.886 99.529 104.19 99.2108 104.514C98.8927 104.838 98.4694 105.113 97.941 105.341C97.4125 105.568 96.7677 105.681 96.0063 105.681ZM96.3131 103.875C97.1086 103.875 97.779 103.718 98.3245 103.406C98.8756 103.093 99.2904 102.69 99.5688 102.196C99.8529 101.701 99.9949 101.181 99.9949 100.636V98.7951C99.9097 98.8974 99.7222 98.9911 99.4324 99.0763C99.1483 99.1559 98.8188 99.2269 98.4438 99.2894C98.0745 99.3462 97.7137 99.3974 97.3614 99.4428C97.0148 99.4826 96.7336 99.5167 96.5177 99.5451C95.9949 99.6133 95.5063 99.7241 95.0517 99.8775C94.6029 100.025 94.2392 100.25 93.9608 100.551C93.6881 100.846 93.5517 101.25 93.5517 101.761C93.5517 102.46 93.8103 102.988 94.3273 103.346C94.85 103.698 95.512 103.875 96.3131 103.875Z" fill="white"/>
</svg>
